<?xml version="1.0" encoding="UTF-8"?>
<svg xmlns="http://www.w3.org/2000/svg" xmlns:xlink="http://www.w3.org/1999/xlink" width="100pt" height="100pt" viewBox="0 0 100 100" version="1.1">
<g id="surface19383478">
<path style=" stroke:none;fill-rule:nonzero;fill:rgb(80%,80%,80%);fill-opacity:1;" d="M 88.492188 56.039062 C 88.792969 55.425781 89.058594 54.78125 89.285156 54.105469 C 91.90625 46.363281 87.941406 37.097656 79.59375 34.859375 C 78.691406 23.519531 70.722656 15.742188 61.726562 14.417969 C 51.429688 12.898438 41.992188 19.441406 38.855469 29.839844 C 35.070312 28.5 31.382812 28.660156 27.910156 30.691406 C 26.332031 31.421875 24.890625 32.496094 23.597656 33.910156 C 21.695312 35.988281 20.464844 38.613281 19.960938 41.378906 C 19.214844 41.492188 18.484375 41.613281 17.792969 41.859375 C 13.769531 43.300781 11.230469 46.273438 10.535156 50.746094 C 10.101562 53.53125 10.976562 56.308594 11.464844 57.433594 C 13.390625 61.867188 17.859375 64.382812 22.398438 63.71875 C 22.625 63.683594 22.953125 63.785156 23.148438 63.949219 C 23.390625 71.039062 26.832031 77.3125 31.996094 80.894531 C 40.285156 86.640625 50.945312 84.871094 57.671875 76.988281 C 60.554688 79.9375 63.984375 81.367188 68.015625 80.847656 C 72.019531 80.332031 75.132812 78.121094 77.402344 74.527344 C 78.449219 74.808594 79.445312 75.214844 80.472656 75.328125 C 84.496094 75.769531 87.765625 74.167969 90.164062 70.546875 C 91.082031 69.164062 91.949219 67.367188 91.949219 64.21875 C 91.949219 60.976562 90.660156 58.019531 88.492188 56.039062 Z M 88.492188 56.039062 "/>
<path style=" stroke:none;fill-rule:nonzero;fill:rgb(92.54902%,94.117647%,94.509804%);fill-opacity:1;" d="M 77.023438 48.445312 C 77.023438 48.445312 88.667969 48.445312 88.738281 48.445312 C 91.425781 48.445312 93.605469 46.265625 93.605469 43.578125 C 93.605469 41.230469 91.945312 39.273438 89.738281 38.8125 C 89.761719 38.609375 89.78125 38.398438 89.78125 38.1875 C 89.78125 35.402344 87.523438 33.144531 84.738281 33.144531 C 83.09375 33.144531 81.640625 33.9375 80.71875 35.152344 C 80.484375 32.054688 77.714844 29.664062 74.476562 30.058594 C 72.105469 30.347656 70.148438 32.179688 69.710938 34.527344 C 69.570312 35.277344 69.585938 36.007812 69.726562 36.695312 C 69.089844 36.011719 68.1875 35.578125 67.179688 35.578125 C 65.335938 35.578125 63.832031 37.015625 63.714844 38.828125 C 62.875 38.640625 61.964844 38.652344 61.007812 39.015625 C 59.175781 39.703125 57.871094 41.425781 57.792969 43.382812 C 57.683594 46.160156 59.902344 48.445312 62.65625 48.445312 C 62.867188 48.445312 63.601562 48.445312 63.769531 48.445312 L 73.878906 48.445312 "/>
<path style=" stroke:none;fill-rule:nonzero;fill:rgb(20%,20%,20%);fill-opacity:1;" d="M 88.738281 48.945312 L 77.023438 48.945312 C 76.746094 48.945312 76.523438 48.722656 76.523438 48.445312 C 76.523438 48.171875 76.746094 47.945312 77.023438 47.945312 L 88.738281 47.945312 C 91.148438 47.945312 93.105469 45.988281 93.105469 43.578125 C 93.105469 41.519531 91.648438 39.722656 89.636719 39.304688 C 89.382812 39.25 89.210938 39.011719 89.242188 38.753906 C 89.265625 38.566406 89.28125 38.378906 89.28125 38.1875 C 89.28125 35.683594 87.242188 33.644531 84.738281 33.644531 C 83.308594 33.644531 81.988281 34.304688 81.117188 35.457031 C 80.992188 35.621094 80.777344 35.695312 80.578125 35.632812 C 80.378906 35.574219 80.234375 35.398438 80.222656 35.191406 C 80.117188 33.820312 79.445312 32.535156 78.378906 31.660156 C 77.300781 30.777344 75.9375 30.386719 74.535156 30.554688 C 72.378906 30.820312 70.597656 32.488281 70.203125 34.617188 C 70.078125 35.28125 70.085938 35.949219 70.214844 36.597656 C 70.261719 36.816406 70.152344 37.039062 69.953125 37.140625 C 69.753906 37.242188 69.511719 37.199219 69.359375 37.035156 C 68.785156 36.421875 68.011719 36.082031 67.179688 36.082031 C 65.617188 36.082031 64.316406 37.300781 64.210938 38.859375 C 64.203125 39.007812 64.128906 39.140625 64.011719 39.226562 C 63.894531 39.316406 63.746094 39.347656 63.605469 39.316406 C 62.769531 39.132812 61.976562 39.183594 61.183594 39.484375 C 59.523438 40.105469 58.359375 41.683594 58.292969 43.402344 C 58.246094 44.605469 58.679688 45.742188 59.507812 46.605469 C 60.339844 47.472656 61.460938 47.945312 62.65625 47.945312 L 73.878906 47.945312 C 74.15625 47.945312 74.378906 48.171875 74.378906 48.445312 C 74.378906 48.722656 74.15625 48.945312 73.878906 48.945312 L 62.65625 48.945312 C 61.183594 48.945312 59.808594 48.363281 58.789062 47.300781 C 57.769531 46.238281 57.238281 44.839844 57.292969 43.363281 C 57.378906 41.246094 58.796875 39.308594 60.832031 38.546875 C 61.628906 38.25 62.453125 38.148438 63.289062 38.25 C 63.664062 36.433594 65.277344 35.082031 67.179688 35.082031 C 67.859375 35.082031 68.527344 35.257812 69.113281 35.585938 C 69.113281 35.203125 69.148438 34.820312 69.21875 34.4375 C 69.695312 31.882812 71.828125 29.878906 74.414062 29.5625 C 76.085938 29.355469 77.722656 29.828125 79.011719 30.886719 C 80.011719 31.707031 80.71875 32.828125 81.042969 34.066406 C 82.050781 33.152344 83.351562 32.648438 84.738281 32.648438 C 87.796875 32.648438 90.28125 35.132812 90.28125 38.191406 C 90.28125 38.273438 90.277344 38.355469 90.273438 38.4375 C 92.519531 39.105469 94.105469 41.203125 94.105469 43.578125 C 94.105469 46.539062 91.699219 48.945312 88.738281 48.945312 Z M 88.738281 48.945312 "/>
<path style=" stroke:none;fill-rule:nonzero;fill:rgb(92.54902%,94.117647%,94.509804%);fill-opacity:1;" d="M 72.773438 38.949219 C 70.972656 38.832031 69.425781 40.078125 69.3125 41.730469 C 69.300781 41.933594 69.308594 42.136719 69.339844 42.332031 C 68.992188 41.941406 68.476562 41.675781 67.886719 41.636719 C 66.804688 41.566406 65.871094 42.277344 65.738281 43.25 C 65.539062 43.195312 65.335938 43.160156 65.121094 43.144531 C 63.546875 43.042969 62.191406 44.128906 62.09375 45.574219 "/>
<path style=" stroke:none;fill-rule:nonzero;fill:rgb(20%,20%,20%);fill-opacity:1;" d="M 62.09375 45.824219 C 62.089844 45.824219 62.082031 45.824219 62.078125 45.824219 C 61.941406 45.816406 61.835938 45.695312 61.84375 45.558594 C 61.949219 43.976562 63.421875 42.777344 65.140625 42.894531 C 65.273438 42.902344 65.410156 42.921875 65.546875 42.945312 C 65.820312 41.984375 66.808594 41.320312 67.902344 41.386719 C 68.324219 41.414062 68.722656 41.542969 69.058594 41.765625 C 69.0625 41.746094 69.0625 41.730469 69.0625 41.710938 C 69.183594 39.925781 70.847656 38.582031 72.789062 38.699219 C 72.929688 38.710938 73.03125 38.828125 73.023438 38.96875 C 73.015625 39.105469 72.90625 39.207031 72.757812 39.199219 C 71.097656 39.085938 69.664062 40.234375 69.5625 41.746094 C 69.550781 41.929688 69.558594 42.113281 69.585938 42.292969 C 69.601562 42.402344 69.542969 42.511719 69.445312 42.558594 C 69.34375 42.605469 69.226562 42.582031 69.152344 42.496094 C 68.828125 42.132812 68.375 41.914062 67.871094 41.882812 C 66.933594 41.816406 66.101562 42.4375 65.984375 43.28125 C 65.976562 43.351562 65.933594 43.414062 65.875 43.453125 C 65.816406 43.492188 65.738281 43.503906 65.671875 43.488281 C 65.484375 43.433594 65.292969 43.402344 65.105469 43.390625 C 63.679688 43.304688 62.433594 44.28125 62.34375 45.589844 C 62.335938 45.722656 62.226562 45.824219 62.09375 45.824219 Z M 62.09375 45.824219 "/>
<path style=" stroke:none;fill-rule:nonzero;fill:rgb(92.54902%,94.117647%,94.509804%);fill-opacity:1;" d="M 90.710938 39.382812 C 89.015625 38.585938 87.058594 39.152344 86.339844 40.644531 C 86.246094 40.832031 86.183594 41.023438 86.136719 41.21875 "/>
<path style=" stroke:none;fill-rule:nonzero;fill:rgb(20%,20%,20%);fill-opacity:1;" d="M 86.136719 41.46875 C 86.121094 41.46875 86.101562 41.464844 86.082031 41.460938 C 85.945312 41.429688 85.863281 41.296875 85.894531 41.160156 C 85.945312 40.945312 86.015625 40.734375 86.113281 40.539062 C 86.894531 38.921875 89.003906 38.304688 90.816406 39.160156 C 90.941406 39.21875 90.992188 39.367188 90.933594 39.492188 C 90.875 39.617188 90.726562 39.671875 90.601562 39.613281 C 89.035156 38.875 87.222656 39.386719 86.5625 40.757812 C 86.484375 40.921875 86.421875 41.09375 86.382812 41.273438 C 86.355469 41.390625 86.253906 41.46875 86.136719 41.46875 Z M 86.136719 41.46875 "/>
<path style=" stroke:none;fill-rule:nonzero;fill:rgb(20%,20%,20%);fill-opacity:1;" d="M 21.824219 47 L 11.832031 47 C 11.558594 47 11.332031 46.777344 11.332031 46.5 C 11.332031 46.222656 11.558594 46 11.832031 46 L 21.820312 46 C 22.097656 46 22.320312 46.222656 22.320312 46.5 C 22.320312 46.777344 22.097656 47 21.824219 47 Z M 24.691406 47 L 23.253906 47 C 22.976562 47 22.753906 46.777344 22.753906 46.5 C 22.753906 46.222656 22.976562 46 23.253906 46 L 24.691406 46 C 24.96875 46 25.191406 46.222656 25.191406 46.5 C 25.191406 46.777344 24.96875 47 24.691406 47 Z M 28.730469 47 L 26.195312 47 C 25.917969 47 25.695312 46.777344 25.695312 46.5 C 25.695312 46.222656 25.917969 46 26.195312 46 L 28.730469 46 C 29.007812 46 29.230469 46.222656 29.230469 46.5 C 29.230469 46.777344 29.007812 47 28.730469 47 Z M 28.730469 49 L 19.152344 49 C 18.878906 49 18.652344 48.777344 18.652344 48.5 C 18.652344 48.222656 18.878906 48 19.152344 48 L 28.730469 48 C 29.007812 48 29.230469 48.222656 29.230469 48.5 C 29.230469 48.777344 29.007812 49 28.730469 49 Z M 17.429688 49 L 16.851562 49 C 16.574219 49 16.351562 48.777344 16.351562 48.5 C 16.351562 48.222656 16.574219 48 16.851562 48 L 17.429688 48 C 17.703125 48 17.929688 48.222656 17.929688 48.5 C 17.929688 48.777344 17.703125 49 17.429688 49 Z M 15.0625 49 L 13.609375 49 C 13.335938 49 13.109375 48.777344 13.109375 48.5 C 13.109375 48.222656 13.335938 48 13.609375 48 L 15.0625 48 C 15.335938 48 15.5625 48.222656 15.5625 48.5 C 15.5625 48.777344 15.339844 49 15.0625 49 Z M 15.0625 49 "/>
<path style=" stroke:none;fill-rule:nonzero;fill:rgb(20%,20%,20%);fill-opacity:1;" d="M 24.160156 45 L 19.152344 45 C 18.878906 45 18.652344 44.777344 18.652344 44.5 C 18.652344 44.222656 18.878906 44 19.152344 44 L 24.160156 44 C 24.4375 44 24.660156 44.222656 24.660156 44.5 C 24.660156 44.777344 24.4375 45 24.160156 45 Z M 24.160156 45 "/>
<path style=" stroke:none;fill-rule:nonzero;fill:rgb(20%,20%,20%);fill-opacity:1;" d="M 24.160156 43 L 22.90625 43 C 22.632812 43 22.40625 42.777344 22.40625 42.5 C 22.40625 42.222656 22.632812 42 22.90625 42 L 24.160156 42 C 24.4375 42 24.660156 42.222656 24.660156 42.5 C 24.660156 42.777344 24.4375 43 24.160156 43 Z M 24.160156 43 "/>
<path style=" stroke:none;fill-rule:nonzero;fill:rgb(20%,20%,20%);fill-opacity:1;" d="M 20.90625 51 L 19.152344 51 C 18.878906 51 18.652344 50.777344 18.652344 50.5 C 18.652344 50.222656 18.878906 50 19.152344 50 L 20.90625 50 C 21.179688 50 21.40625 50.222656 21.40625 50.5 C 21.40625 50.777344 21.179688 51 20.90625 51 Z M 20.90625 51 "/>
<path style=" stroke:none;fill-rule:nonzero;fill:rgb(20%,20%,20%);fill-opacity:1;" d="M 68.40625 25 L 58.417969 25 C 58.144531 25 57.917969 24.777344 57.917969 24.5 C 57.917969 24.222656 58.144531 24 58.417969 24 L 68.40625 24 C 68.683594 24 68.90625 24.222656 68.90625 24.5 C 68.90625 24.777344 68.683594 25 68.40625 25 Z M 71.277344 25 L 69.835938 25 C 69.5625 25 69.335938 24.777344 69.335938 24.5 C 69.335938 24.222656 69.5625 24 69.835938 24 L 71.277344 24 C 71.554688 24 71.777344 24.222656 71.777344 24.5 C 71.777344 24.777344 71.554688 25 71.277344 25 Z M 75.316406 25 L 72.777344 25 C 72.503906 25 72.277344 24.777344 72.277344 24.5 C 72.277344 24.222656 72.503906 24 72.777344 24 L 75.316406 24 C 75.589844 24 75.816406 24.222656 75.816406 24.5 C 75.816406 24.777344 75.589844 25 75.316406 25 Z M 73.296875 21 L 63.71875 21 C 63.445312 21 63.21875 20.777344 63.21875 20.5 C 63.21875 20.222656 63.445312 20 63.71875 20 L 73.296875 20 C 73.574219 20 73.796875 20.222656 73.796875 20.5 C 73.796875 20.777344 73.574219 21 73.296875 21 Z M 61.996094 21 L 61.417969 21 C 61.140625 21 60.917969 20.777344 60.917969 20.5 C 60.917969 20.222656 61.140625 20 61.417969 20 L 61.996094 20 C 62.273438 20 62.496094 20.222656 62.496094 20.5 C 62.496094 20.777344 62.273438 21 61.996094 21 Z M 59.628906 21 L 58.179688 21 C 57.902344 21 57.679688 20.777344 57.679688 20.5 C 57.679688 20.222656 57.902344 20 58.179688 20 L 59.628906 20 C 59.90625 20 60.128906 20.222656 60.128906 20.5 C 60.128906 20.777344 59.90625 21 59.628906 21 Z M 59.628906 21 "/>
<path style=" stroke:none;fill-rule:nonzero;fill:rgb(20%,20%,20%);fill-opacity:1;" d="M 70.742188 23 L 65.738281 23 C 65.460938 23 65.238281 22.777344 65.238281 22.5 C 65.238281 22.222656 65.460938 22 65.738281 22 L 70.742188 22 C 71.019531 22 71.242188 22.222656 71.242188 22.5 C 71.242188 22.777344 71.019531 23 70.742188 23 Z M 70.742188 23 "/>
<path style=" stroke:none;fill-rule:nonzero;fill:rgb(20%,20%,20%);fill-opacity:1;" d="M 70.742188 21 L 69.492188 21 C 69.214844 21 68.992188 20.777344 68.992188 20.5 C 68.992188 20.222656 69.214844 20 69.492188 20 L 70.742188 20 C 71.019531 20 71.242188 20.222656 71.242188 20.5 C 71.242188 20.777344 71.019531 21 70.742188 21 Z M 70.742188 21 "/>
<path style=" stroke:none;fill-rule:nonzero;fill:rgb(20%,20%,20%);fill-opacity:1;" d="M 64.289062 23 L 62.535156 23 C 62.261719 23 62.035156 22.777344 62.035156 22.5 C 62.035156 22.222656 62.261719 22 62.535156 22 L 64.289062 22 C 64.5625 22 64.789062 22.222656 64.789062 22.5 C 64.789062 22.777344 64.566406 23 64.289062 23 Z M 64.289062 23 "/>
<path style=" stroke:none;fill-rule:nonzero;fill:rgb(80%,80%,80%);fill-opacity:1;" d="M 34.441406 69.300781 C 33.957031 69.300781 33.355469 69.164062 33.015625 68.101562 C 32.75 67.273438 32.75 66.253906 32.753906 65.578125 L 32.699219 39.25 L 32.699219 35.601562 C 32.699219 34.003906 33.976562 32.699219 35.550781 32.699219 L 52.726562 32.699219 C 54.332031 32.699219 55.640625 34.074219 55.640625 35.765625 L 55.640625 37.160156 C 55.640625 38.363281 56.589844 39.347656 57.757812 39.347656 L 73.390625 39.347656 C 73.789062 39.347656 74.109375 39.699219 74.109375 40.132812 L 74.109375 62.632812 C 74.109375 62.9375 74.121094 63.316406 74.132812 63.734375 C 74.175781 65.371094 74.246094 68.011719 73.695312 69.300781 Z M 34.441406 69.300781 "/>
<path style=" stroke:none;fill-rule:nonzero;fill:rgb(20%,20%,20%);fill-opacity:1;" d="M 52.726562 33.398438 C 53.945312 33.398438 54.9375 34.460938 54.9375 35.765625 L 54.9375 37.160156 C 54.9375 38.75 56.203125 40.046875 57.757812 40.046875 L 73.375 40.042969 C 73.382812 40.046875 73.410156 40.074219 73.410156 40.132812 L 73.410156 62.632812 C 73.410156 62.945312 73.421875 63.324219 73.429688 63.753906 C 73.464844 64.980469 73.527344 67.3125 73.195312 68.601562 L 34.441406 68.601562 C 34.183594 68.601562 33.910156 68.601562 33.683594 67.886719 C 33.453125 67.164062 33.453125 66.210938 33.453125 65.578125 L 33.453125 65.492188 L 33.398438 39.253906 L 33.398438 35.601562 C 33.398438 34.386719 34.363281 33.398438 35.550781 33.398438 L 52.726562 33.398438 M 52.726562 32 L 35.550781 32 C 33.597656 32 32 33.621094 32 35.601562 L 32 39.253906 L 32.050781 65.496094 C 32.050781 66.851562 32 70 34.441406 70 L 74.113281 70 C 75.140625 68.429688 74.808594 64.367188 74.808594 62.632812 L 74.808594 40.132812 C 74.808594 39.3125 74.175781 38.644531 73.390625 38.644531 L 57.757812 38.644531 C 56.972656 38.644531 56.339844 37.980469 56.339844 37.15625 L 56.339844 35.765625 C 56.339844 33.695312 54.714844 32 52.726562 32 Z M 52.726562 32 "/>
<path style=" stroke:none;fill-rule:nonzero;fill:rgb(99.215686%,98.823529%,93.333333%);fill-opacity:1;" d="M 34.746094 69.300781 C 34.699219 69.285156 34.636719 69.214844 34.585938 69.128906 C 35.730469 68.765625 35.832031 66.652344 35.832031 64.148438 L 35.832031 43.1875 C 35.832031 42.917969 36.035156 42.699219 36.285156 42.699219 L 75.847656 42.699219 C 76.097656 42.699219 76.300781 42.921875 76.300781 43.1875 L 76.300781 65.960938 C 76.300781 67.800781 74.855469 69.300781 73.078125 69.300781 Z M 34.746094 69.300781 "/>
<path style=" stroke:none;fill-rule:nonzero;fill:rgb(20%,20%,20%);fill-opacity:1;" d="M 75.601562 43.398438 L 75.601562 65.957031 C 75.601562 67.414062 74.46875 68.601562 73.078125 68.601562 L 36.03125 68.601562 C 36.53125 67.4375 36.53125 65.679688 36.53125 64.148438 L 36.53125 43.398438 L 75.601562 43.398438 M 75.847656 42 L 36.285156 42 C 35.648438 42 35.132812 42.53125 35.132812 43.1875 L 35.132812 64.148438 C 35.132812 66.832031 34.953125 68.484375 34.203125 68.484375 C 33.394531 68.484375 33.9375 70 34.742188 70 L 73.078125 70 C 75.246094 70 77 68.191406 77 65.957031 L 77 43.1875 C 77 42.53125 76.484375 42 75.847656 42 Z M 75.847656 42 "/>
<path style=" stroke:none;fill-rule:nonzero;fill:rgb(20%,20%,20%);fill-opacity:1;" d="M 45.5 37 L 35.5 37 C 35.222656 37 35 36.777344 35 36.5 C 35 36.222656 35.222656 36 35.5 36 L 45.5 36 C 45.777344 36 46 36.222656 46 36.5 C 46 36.777344 45.777344 37 45.5 37 Z M 45.5 37 "/>
<path style=" stroke:none;fill-rule:nonzero;fill:rgb(20%,20%,20%);fill-opacity:1;" d="M 52.5 37 L 48.5 37 C 48.222656 37 48 36.777344 48 36.5 C 48 36.222656 48.222656 36 48.5 36 L 52.5 36 C 52.777344 36 53 36.222656 53 36.5 C 53 36.777344 52.777344 37 52.5 37 Z M 52.5 37 "/>
<path style=" stroke:none;fill-rule:nonzero;fill:rgb(20%,20%,20%);fill-opacity:1;" d="M 53.5 52 L 40.5 52 C 40.222656 52 40 51.777344 40 51.5 L 40 46.5 C 40 46.222656 40.222656 46 40.5 46 L 53.5 46 C 53.777344 46 54 46.222656 54 46.5 L 54 51.5 C 54 51.777344 53.777344 52 53.5 52 Z M 41 51 L 53 51 L 53 47 L 41 47 Z M 41 51 "/>
<path style=" stroke:none;fill-rule:nonzero;fill:rgb(92.54902%,94.117647%,94.509804%);fill-opacity:1;" d="M 38.984375 75.492188 C 40.863281 75.492188 42.488281 75.492188 42.511719 75.492188 C 44.613281 75.492188 46.316406 73.824219 46.316406 71.769531 C 46.316406 69.976562 45.019531 68.476562 43.292969 68.125 C 43.3125 67.96875 43.328125 67.808594 43.328125 67.644531 C 43.328125 65.515625 41.5625 63.789062 39.386719 63.789062 C 38.101562 63.789062 36.964844 64.394531 36.242188 65.324219 C 36.058594 62.953125 33.894531 61.125 31.363281 61.429688 C 29.511719 61.648438 27.980469 63.050781 27.640625 64.84375 C 27.53125 65.421875 27.542969 65.980469 27.652344 66.503906 C 27.15625 65.980469 26.449219 65.652344 25.660156 65.652344 C 24.222656 65.652344 23.046875 66.746094 22.953125 68.136719 C 22.300781 67.992188 21.589844 68.003906 20.839844 68.277344 C 19.40625 68.804688 18.386719 70.125 18.324219 71.621094 C 18.242188 73.746094 19.976562 75.492188 22.128906 75.492188 C 22.289062 75.492188 22.867188 75.492188 22.996094 75.492188 L 30.898438 75.492188 M 32.535156 75.492188 L 32.894531 75.492188 "/>
<path style=" stroke:none;fill-rule:nonzero;fill:rgb(20%,20%,20%);fill-opacity:1;" d="M 42.511719 75.992188 L 38.984375 75.992188 C 38.710938 75.992188 38.484375 75.769531 38.484375 75.492188 C 38.484375 75.21875 38.710938 74.992188 38.984375 74.992188 L 42.511719 74.992188 C 44.335938 74.992188 45.816406 73.546875 45.816406 71.769531 C 45.816406 70.253906 44.714844 68.925781 43.195312 68.613281 C 42.9375 68.5625 42.765625 68.320312 42.796875 68.0625 C 42.816406 67.925781 42.828125 67.785156 42.828125 67.644531 C 42.828125 65.792969 41.285156 64.289062 39.386719 64.289062 C 38.300781 64.289062 37.300781 64.777344 36.640625 65.628906 C 36.515625 65.792969 36.300781 65.863281 36.101562 65.804688 C 35.902344 65.742188 35.761719 65.570312 35.746094 65.363281 C 35.667969 64.347656 35.183594 63.429688 34.382812 62.773438 C 33.558594 62.09375 32.503906 61.789062 31.425781 61.925781 C 29.785156 62.121094 28.433594 63.359375 28.132812 64.9375 C 28.039062 65.429688 28.042969 65.921875 28.140625 66.402344 C 28.1875 66.621094 28.082031 66.84375 27.882812 66.945312 C 27.6875 67.050781 27.441406 67.011719 27.289062 66.847656 C 26.863281 66.398438 26.285156 66.152344 25.660156 66.152344 C 24.5 66.152344 23.527344 67.035156 23.453125 68.167969 C 23.441406 68.3125 23.371094 68.445312 23.253906 68.535156 C 23.136719 68.621094 22.988281 68.65625 22.847656 68.625 C 22.214844 68.484375 21.613281 68.527344 21.011719 68.746094 C 19.753906 69.210938 18.878906 70.371094 18.824219 71.640625 C 18.789062 72.511719 19.105469 73.339844 19.71875 73.972656 C 20.347656 74.632812 21.203125 74.992188 22.128906 74.992188 L 30.898438 74.992188 C 31.175781 74.992188 31.398438 75.21875 31.398438 75.492188 C 31.398438 75.769531 31.175781 75.992188 30.898438 75.992188 L 22.128906 75.992188 C 20.949219 75.992188 19.804688 75.511719 18.996094 74.667969 C 18.195312 73.835938 17.78125 72.746094 17.828125 71.601562 C 17.894531 69.933594 19.035156 68.410156 20.667969 67.808594 C 21.273438 67.585938 21.902344 67.507812 22.539062 67.566406 C 22.882812 66.175781 24.164062 65.152344 25.664062 65.152344 C 26.152344 65.152344 26.632812 65.265625 27.070312 65.472656 C 27.078125 65.230469 27.105469 64.992188 27.152344 64.753906 C 27.53125 62.75 29.238281 61.179688 31.304688 60.933594 C 32.664062 60.769531 33.980469 61.148438 35.019531 62 C 35.761719 62.609375 36.289062 63.402344 36.558594 64.289062 C 37.347656 63.644531 38.335938 63.289062 39.386719 63.289062 C 41.835938 63.289062 43.828125 65.242188 43.828125 67.644531 C 43.828125 67.679688 43.828125 67.714844 43.828125 67.746094 C 45.585938 68.300781 46.820312 69.925781 46.820312 71.769531 C 46.816406 74.097656 44.886719 75.992188 42.511719 75.992188 Z M 32.894531 75.992188 L 32.535156 75.992188 C 32.257812 75.992188 32.035156 75.769531 32.035156 75.492188 C 32.035156 75.21875 32.257812 74.992188 32.535156 74.992188 L 32.894531 74.992188 C 33.167969 74.992188 33.394531 75.21875 33.394531 75.492188 C 33.394531 75.769531 33.167969 75.992188 32.894531 75.992188 Z M 32.894531 75.992188 "/>
<path style=" stroke:none;fill-rule:nonzero;fill:rgb(20%,20%,20%);fill-opacity:1;" d="M 40.8125 70.214844 C 40.792969 70.214844 40.773438 70.210938 40.757812 70.207031 C 40.621094 70.175781 40.535156 70.042969 40.566406 69.90625 C 40.605469 69.742188 40.660156 69.582031 40.734375 69.429688 C 41.339844 68.210938 43 67.761719 44.445312 68.429688 C 44.570312 68.484375 44.625 68.636719 44.566406 68.761719 C 44.507812 68.886719 44.359375 68.941406 44.234375 68.882812 C 43.035156 68.328125 41.667969 68.675781 41.183594 69.652344 C 41.128906 69.769531 41.082031 69.890625 41.054688 70.019531 C 41.027344 70.132812 40.925781 70.214844 40.8125 70.214844 Z M 40.8125 70.214844 "/>
<path style=" stroke:none;fill-rule:nonzero;fill:rgb(20%,20%,20%);fill-opacity:1;" d="M 35.671875 75.992188 L 34.570312 75.992188 C 34.292969 75.992188 34.070312 75.769531 34.070312 75.492188 C 34.070312 75.21875 34.292969 74.992188 34.570312 74.992188 L 35.671875 74.992188 C 35.949219 74.992188 36.171875 75.21875 36.171875 75.492188 C 36.171875 75.769531 35.949219 75.992188 35.671875 75.992188 Z M 35.671875 75.992188 "/>
</g>
</svg>
